<?xml version="1.0" encoding="UTF-8" standalone="no" ?>
<!DOCTYPE svg PUBLIC "-//W3C//DTD SVG 1.1//EN" "http://www.w3.org/Graphics/SVG/1.1/DTD/svg11.dtd">
<svg xmlns="http://www.w3.org/2000/svg" xmlns:xlink="http://www.w3.org/1999/xlink" version="1.1" width="1080" height="1080" viewBox="0 0 1080 1080" xml:space="preserve">
<desc>Created with Fabric.js 5.2.4</desc>
<defs>
</defs>
<rect x="0" y="0" width="100%" height="100%" fill="transparent"></rect>
<g transform="matrix(1 0 0 1 540 540)" id="d26e1e57-4d0b-460f-8761-9319ed2e8613"  >
<rect style="stroke: none; stroke-width: 1; stroke-dasharray: none; stroke-linecap: butt; stroke-dashoffset: 0; stroke-linejoin: miter; stroke-miterlimit: 4; fill: rgb(255,255,255); fill-rule: nonzero; opacity: 1; visibility: hidden;" vector-effect="non-scaling-stroke"  x="-540" y="-540" rx="0" ry="0" width="1080" height="1080" />
</g>
<g transform="matrix(1 0 0 1 540 540)" id="f43f7edd-d69f-4cbe-b0b0-a1d82e763d47"  >
</g>
<g transform="matrix(1 0 0 1 540 540)"  >
<path style="stroke: rgb(26,34,54); stroke-width: 0; stroke-dasharray: none; stroke-linecap: butt; stroke-dashoffset: 0; stroke-linejoin: miter; stroke-miterlimit: 4; fill: rgb(250,250,250); fill-rule: nonzero; opacity: 1;" vector-effect="non-scaling-stroke"  transform=" translate(-11, -11)" d="M 12.6002 1.73246 L 19.0425 1.73246 L 8.78761 11.9874 L 10.0126 13.2124 L 20.2675 2.95755 L 20.2675 9.39982 L 22 9.39982 L 22 0.866231 L 22 0 L 21.1338 0 L 12.6002 0 L 12.6002 1.73246 Z M 0.866231 3.19972 L 5.1333 3.19972 L 5.1333 4.93219 L 1.73246 4.93219 L 1.73246 20.2669 L 17.0672 20.2669 L 17.0672 16.8666 L 18.7996 16.8666 L 18.7996 21.1331 L 18.7996 21.9994 L 17.9334 21.9994 L 0.866231 21.9994 L 0 21.9994 L 0 21.1331 L 0 4.06596 L 0 3.19972 L 0.866231 3.19972 Z" stroke-linecap="round" />
</g>
</svg>